<?xml version="1.0" encoding="UTF-8" standalone="no"?>
<svg
   xmlns:dc="http://purl.org/dc/elements/1.1/"
   xmlns:cc="http://creativecommons.org/ns#"
   xmlns:rdf="http://www.w3.org/1999/02/22-rdf-syntax-ns#"
   xmlns:svg="http://www.w3.org/2000/svg"
   xmlns="http://www.w3.org/2000/svg"
   xmlns:sodipodi="http://sodipodi.sourceforge.net/DTD/sodipodi-0.dtd"
   xmlns:inkscape="http://www.inkscape.org/namespaces/inkscape"
   viewBox="0 0 249.449 249.44901"
   height="249.44901"
   width="249.44901"
   xml:space="preserve"
   id="svg2"
   version="1.1"
   sodipodi:docname="Volkswagen.svg"
   inkscape:version="0.92.2 5c3e80d, 2017-08-06"><sodipodi:namedview
     pagecolor="#ffffff"
     bordercolor="#666666"
     borderopacity="1"
     objecttolerance="10"
     gridtolerance="10"
     guidetolerance="10"
     inkscape:pageopacity="0"
     inkscape:pageshadow="2"
     inkscape:window-width="1680"
     inkscape:window-height="929"
     id="namedview14"
     showgrid="false"
     inkscape:zoom="0.91831651"
     inkscape:cx="128.496"
     inkscape:cy="128.496"
     inkscape:window-x="0"
     inkscape:window-y="1"
     inkscape:window-maximized="1"
     inkscape:current-layer="g12" /><metadata
     id="metadata8"><rdf:RDF><cc:Work
         rdf:about=""><dc:format>image/svg+xml</dc:format><dc:type
           rdf:resource="http://purl.org/dc/dcmitype/StillImage" /><dc:title></dc:title></cc:Work></rdf:RDF></metadata><defs
     id="defs6" /><g
     transform="matrix(1.3333333,0,0,-1.3333333,0,249.44899)"
     id="g10"><g
       transform="scale(0.1)"
       id="g12"><path
         id="path16"
         style="fill:#231f20;fill-opacity:1;fill-rule:evenodd;stroke:none"
         d="M 935.4332,1870.8641 C 418.8082,1870.8641 0,1452.0441 0,935.43309 0,418.80809 418.8082,-1.0795899e-4 935.4332,-1.0795899e-4 c 516.611,0 935.431,418.80819795899 935.431,935.43319795899 0,516.61101 -418.82,935.43101 -935.431,935.43101 z m 0,-1786.985008 c -470.308,0 -851.554,381.249998 -851.554,851.553998 0,470.29101 381.246,851.56101 851.554,851.56101 470.291,0 851.561,-381.27 851.561,-851.56101 0,-470.304 -381.27,-851.553998 -851.561,-851.553998 v 0 0"
         inkscape:connector-curvature="0" /><path
         id="path18"
         style="fill:#231f20;fill-opacity:1;fill-rule:evenodd;stroke:none"
         d="m 748.9922,1571.6641 c 59.145,17.3 121.703,26.56 186.441,26.56 64.641,0 127.151,-9.25 186.231,-26.51 v 0 l -186.231,-412.8 -186.441,412.75 v 0"
         inkscape:connector-curvature="0" /><path
         id="path20"
         style="fill:#231f20;fill-opacity:1;fill-rule:evenodd;stroke:none"
         d="m 1291.2042,1494.7541 c 69.86,-44.54 130.8,-101.78 179.58,-168.47 v 0 l -305.67,-676.40101 -117.94,262.257 h -223.479 l -117.945,-262.257 -305.215,677.03101 v 0 c 48.699,66.43 109.469,123.44 179.094,167.82 v 0 l 244.066,-541.45701 h 224.239 l 243.27,541.47701 v 0"
         inkscape:connector-curvature="0" /><path
         id="path22"
         style="fill:#231f20;fill-opacity:1;fill-rule:evenodd;stroke:none"
         d="m 295.0352,1106.9841 c -14.613,-54.73 -22.41,-112.24001 -22.41,-171.55101 0,-259.742 149.394,-484.578 366.945,-593.285 v 0 l -344.535,764.83601 v 0"
         inkscape:connector-curvature="0" /><path
         id="path24"
         style="fill:#231f20;fill-opacity:1;fill-rule:evenodd;stroke:none"
         d="m 752.0702,298.31609 c 58.219,-16.734 119.75,-25.691 183.363,-25.691 63.531,0 124.981,8.937 183.151,25.625 v 0 l -183.151,406.726 -183.363,-406.66 v 0"
         inkscape:connector-curvature="0" /><path
         id="path26"
         style="fill:#231f20;fill-opacity:1;fill-rule:evenodd;stroke:none"
         d="m 1231.2842,342.14809 c 217.55,108.707 366.94,333.543 366.94,593.285 0,58.801 -7.64,115.81101 -22.01,170.09101 v 0 l -344.93,-763.37601 v 0"
         inkscape:connector-curvature="0" /></g></g></svg>